<?xml version="1.0" standalone="no"?>
<!DOCTYPE svg PUBLIC "-//W3C//DTD SVG 1.1//EN" "http://www.w3.org/Graphics/SVG/1.1/DTD/svg11.dtd" >
<svg xmlns="http://www.w3.org/2000/svg" xmlns:xlink="http://www.w3.org/1999/xlink" version="1.1" viewBox="-10 0 266 256">
   <path fill="currentColor"
d="M134 15q9 6 12 11q1 1 0 3q-2 2 -1 8q0 11 -3 45q9 -4 20 -8q2 -1 5 -2q-1 0 2 -2q1 0 4 1q4 2 9 7v3q-2 3 -4 2q-4 2 -9 8q-24 28 -38 28q-5 6 -7 5q-1 0 -4 -6q-1 0 0 -1l1 -1q7 -6 10 -22q-9 5 -24 13q-6 29 10 45q12 13 43 16q33 3 64 -5q5 -1 5 -2q1 -2 -2 -7
q-6 -9 -6 -14q-1 -2 1 0q2 3 5 7q8 7 12 10v3q-1 3 -2 3q-32 12 -72 10q-38 -3 -51 -18q-16 -16 -14 -44q-5 3 -12 8l-12 6q-1 5 -4 15l-2 8l-9 33q-5 16 -6 22q-3 6 -1 13q0 3 -3 5q-2 0 -3 -2l-2 -2q-3 -4 -2 -5q-1 -3 1 -2q1 2 2 -3q8 -28 17 -52q7 -21 9 -29q-2 0 -5 1
h-5q-3 0 -1 -3q22 -10 39 -21q1 -15 5 -26v-1q1 -4 2 -10q-1 -2 1 0l3 6q2 2 3 2v4q-4 8 -6 18q-1 1 -1 3q8 -3 25 -13q4 -32 3 -52q0 -9 -3 -18q-2 -2 1 -1zM164 78q-16 7 -23 12q-1 4 -7 19q-1 3 -2 7q17 -6 35 -36q1 -2 0 -2q-1 -1 -3 0zM40 39q-4 -2 1 -2h13q11 1 16 3
q1 1 1 3q-1 5 -2 4q-5 2 -10 -1q-11 -2 -19 -7zM47 102q2 0 1 2q0 2 -4 3q-5 2 -8 3q-4 2 -2 -1q-8 2 -13 0q-3 0 -1 -1q7 -2 19 -6q1 -1 8 0z" />
</svg>
