<?xml version="1.0" standalone="no"?>
<!DOCTYPE svg PUBLIC "-//W3C//DTD SVG 1.1//EN" "http://www.w3.org/Graphics/SVG/1.1/DTD/svg11.dtd" >
<svg xmlns="http://www.w3.org/2000/svg" xmlns:xlink="http://www.w3.org/1999/xlink" version="1.1" viewBox="-10 0 271 256">
   <path fill="currentColor"
d="M149 -3q1 2 3 3q6 5 10 9q2 3 2 4t-2 1q-6 3 -27 28q-4 4 -8 9q11 6 6 11q-9 1 -5 33q-1 15 2 28l15 -3q9 -2 15 -4h1q3 -1 5 -3q2 -5 8 -3q7 2 14 1v-23q1 -12 1 -38q-1 -9 -8 -10q-11 1 -25 8q-5 3 -14 1q-3 0 1 -2q3 0 6 -2q20 -8 32 -9q4 0 7 3l6 6q3 3 6 4q5 2 1 7
q-8 5 -7 13q0 41 -4 56q-3 10 -3 14q-1 6 -5 3q-12 -11 -27 -20q-3 1 -5 2q-17 4 -28 9q-10 5 -17 -1q-3 -2 1 -1q5 0 18 -6q-5 -4 -7 -13q-2 -4 2 -5q3 -1 4 -8t0 -18q-1 -7 -1 -12v-6q0 -4 -3 -4t-5 1q-5 3 -5 -6q0 -7 11 -4q15 -16 26 -34q8 -12 2 -18q-3 -3 1 -1z
M163 119q10 8 18 6q5 -1 5 -9q-13 0 -23 3zM212 120q28 8 38 16q1 5 -2 5q-8 0 -12 -4q-12 -10 -24 -15q-4 -2 0 -2zM146 146q2 2 9 4q3 1 6 1q2 1 3 4q0 3 -2 3q-8 3 -17 -10q-4 -2 1 -2zM193 164q-4 -4 1 -2q19 10 34 22q6 7 11 8q4 6 -1 8t-13 3q-72 16 -102 -25
q-4 -6 2 -2q34 39 93 24q5 -1 4 -9q-6 -12 -29 -27zM111 166q-10 20 -3 29q1 4 -1 5q-5 3 -7 0q-7 -14 1 -22q1 -1 2 -3q5 -6 7 -10t1 1zM99 11q5 1 16 5q3 4 -2 6q-26 -2 -59 23q-4 2 -4 1q-1 -1 2 -4q2 -1 12 -9q1 -1 0 -2q0 -1 -2 -2q-22 5 -30 -1q-5 -1 2 -2
q23 -1 47 -7q5 0 10 -6q3 -3 8 -2zM78 105q-10 5 -13 8q-3 2 -4 2q-5 4 -14 5q0 16 9 27q12 -13 22 -26v-16zM84 123q-1 45 -1 65q1 21 5 40q-3 5 -5 4q-10 -13 -9 -24q0 -8 7 -8q-1 -13 -1 -30q-1 -21 -1 -40q-27 31 -54 57q-9 8 -18 1q-1 -2 3 -3q6 3 10 -3q14 -11 31 -31
q-2 -1 -5 -4q-5 -3 -7 -7q-4 -7 -1 -12q6 -10 4 -37q-1 -6 -1 -10q-1 -8 -1 -12q-2 -13 7 -21q3 -3 2 2q-2 3 -3 6v1q-1 4 2 5q5 5 1 9q-3 2 -2 15q4 -2 8 -7q2 -5 18 -9q3 3 0 5q-8 6 -15 13q-3 5 -2 -2q-3 2 -9 3q-1 1 -1 4q0 22 1 22q7 -1 11 -6q7 -7 20 -10q1 -23 1 -45
q0 -13 -3 -17t1 -2q4 3 8 5l8 4q3 3 3 4q1 1 -2 4q-6 6 -7 13q-2 14 -3 26t0 24q9 -11 17 -22q3 -4 1 1q-2 3 -13 21q-3 5 -5 8zM133 112q3 -3 2 -2q12 -10 18 -17q-1 0 -3 -1q-3 -3 -5 -4q-1 0 1 0q4 1 9 2q7 -12 9 -18q2 -4 -7 1q-3 2 -11 6q-4 2 -5 3q-5 3 -5 -4
q0 -1 2 -2q6 -3 9 -22q-1 -2 1 -1q5 2 0 15v2q-2 4 2 2q9 -4 14 -6v-1q1 -3 3 -3h8l2 2q0 1 -1 1l-3 3q-2 1 -2 3q-4 7 -11 19l-1 2q5 4 10 7q1 1 0 2q0 3 -13 -5q-13 12 -23 18v-2z" />
</svg>
