<svg version="1.0" xmlns="http://www.w3.org/2000/svg"
  viewBox="0 0 824.787966 1200.011695"
 preserveAspectRatio="xMidYMid meet">
<metadata>
For more coloring pages, please visit ColoringAll.com
</metadata>
<g transform="translate(-0.167562,1200.566596) scale(0.100000,-0.100000)"
fill="#000000" stroke="none">
<path d="M3910 12004 c-357 -33 -838 -140 -1102 -245 -140 -56 -385 -179 -488
-246 -269 -176 -519 -422 -692 -683 -280 -424 -439 -926 -503 -1587 -8 -89
-18 -169 -21 -178 -4 -8 -18 -18 -33 -21 -237 -51 -442 -164 -616 -338 -117
-118 -193 -227 -269 -387 -102 -214 -159 -407 -177 -600 -15 -160 -6 -506 15
-618 111 -590 456 -1060 961 -1307 192 -93 550 -206 850 -268 428 -87 719
-112 1567 -132 308 -7 285 3 268 -115 -15 -103 -14 -102 -69 -122 -114 -40
-224 -156 -255 -267 -17 -61 -42 -316 -116 -1190 -64 -753 -68 -801 -83 -821
-7 -9 -40 -48 -73 -87 -85 -96 -107 -157 -102 -277 5 -122 26 -158 200 -342
143 -153 185 -185 272 -213 l51 -17 7 -59 c4 -32 14 -270 23 -529 8 -258 18
-521 22 -583 6 -106 5 -112 -13 -112 -40 0 -141 -31 -210 -65 -134 -65 -206
-177 -208 -320 -1 -138 66 -208 232 -242 84 -17 462 -22 604 -9 81 8 116 25
200 97 l38 32 50 -42 c109 -92 179 -105 540 -105 l275 0 53 29 c183 100 228
317 97 462 -59 66 -133 107 -245 138 -139 39 -136 36 -143 90 -7 51 -94 1080
-98 1160 -3 48 -2 50 22 46 13 -2 83 -4 154 -5 124 -1 133 0 192 28 183 84
274 324 213 561 -25 96 -56 152 -132 231 l-58 60 15 305 c16 343 51 1222 61
1554 7 243 3 273 -46 347 -47 71 -50 94 -39 266 5 86 11 157 13 159 2 2 106
19 231 39 126 19 269 44 319 54 l91 18 170 -113 c430 -286 690 -395 980 -412
81 -4 117 -1 187 16 119 28 175 59 264 143 252 240 353 627 354 1360 l0 187
58 93 c230 367 368 766 453 1316 26 170 38 681 20 917 -28 388 -134 789 -296
1120 -130 267 -303 502 -547 746 -257 256 -503 431 -847 603 -503 252 -1177
434 -1731 466 -174 10 -840 20 -910 14z m935 -104 c827 -70 1636 -359 2212
-792 116 -86 408 -370 500 -483 137 -170 307 -468 396 -695 99 -249 177 -577
198 -830 15 -176 5 -752 -15 -908 -50 -380 -185 -889 -245 -926 -5 -4 -96 58
-203 137 -245 182 -296 217 -318 217 -19 0 -60 -56 -60 -83 0 -13 210 -174
468 -361 43 -31 53 -44 49 -61 -6 -36 -153 -275 -237 -387 -83 -111 -218 -261
-230 -256 -4 2 -106 120 -227 263 -121 143 -238 280 -260 305 l-41 45 -38 -31
c-23 -18 -39 -40 -39 -52 0 -12 82 -118 200 -258 295 -350 306 -364 294 -385
-19 -37 -381 -289 -540 -378 l-57 -32 -42 48 c-23 26 -119 154 -213 283 -185
256 -212 291 -234 303 -17 10 -93 -38 -93 -59 0 -7 75 -117 167 -246 91 -128
188 -267 215 -308 l50 -75 -23 -15 c-60 -40 -333 -139 -524 -190 -161 -43
-367 -85 -560 -114 -275 -42 -356 -57 -360 -70 -2 -6 -6 -23 -9 -38 -8 -34 16
-29 -611 -123 -625 -93 -638 -94 -648 -86 -4 5 -3 50 3 101 9 69 9 95 0 104
-7 7 -130 13 -393 18 -593 11 -897 31 -1257 84 -438 63 -778 160 -1101 313
-159 75 -154 67 -83 142 51 55 344 365 483 511 l45 48 -39 40 c-21 22 -45 40
-51 40 -7 0 -137 -130 -289 -290 -152 -159 -288 -299 -302 -309 -22 -18 -28
-19 -52 -7 -29 16 -191 179 -262 266 -103 124 -219 327 -219 382 0 39 8 47
320 298 137 110 252 205 254 209 3 5 -11 29 -30 54 -44 56 -35 59 -183 -61
-413 -336 -424 -344 -437 -320 -14 28 -59 215 -76 318 -16 100 -16 412 1 530
71 503 303 890 659 1099 83 48 188 90 306 121 60 16 113 33 119 39 5 5 18 94
28 197 28 273 47 413 75 554 205 1026 820 1723 1781 2016 216 65 560 133 753
147 111 8 917 6 1025 -3z m2781 -5457 c-9 -220 -23 -392 -42 -528 -58 -401
-224 -687 -452 -776 -79 -31 -248 -38 -364 -14 -109 22 -244 73 -398 150 -217
109 -474 275 -466 300 1 6 11 11 22 13 10 2 129 40 264 85 203 67 280 99 450
183 374 186 504 278 785 556 110 109 202 198 204 198 2 0 1 -75 -3 -167z
m-2623 -1150 c3 -32 2 -80 -1 -108 l-7 -50 -110 -6 c-115 -6 -164 -19 -238
-62 -60 -35 -102 -86 -124 -148 -14 -40 -25 -55 -48 -64 -52 -22 -692 -145
-753 -145 l-25 0 7 83 c13 157 36 341 44 349 13 13 125 34 382 72 129 19 361
53 515 76 154 23 294 45 310 50 17 4 33 9 36 9 4 1 9 -25 12 -56z m-1363 -229
c0 -14 -74 -594 -120 -949 -28 -209 -55 -390 -60 -402 -9 -21 -17 -23 -76 -23
l-67 0 7 58 c3 31 20 215 36 407 61 722 61 723 120 804 41 56 160 134 160 105z
m1358 -48 c16 -8 44 -32 62 -53 l33 -37 -6 -366 c-6 -363 -22 -713 -36 -780
-6 -30 -13 -37 -46 -47 -38 -12 -476 -73 -483 -67 -2 1 2 151 9 332 14 352 11
382 -30 382 -11 0 -24 -8 -30 -17 -13 -26 -32 -345 -71 -1183 -11 -239 -23
-459 -26 -489 l-7 -54 -351 7 c-483 9 -909 26 -919 35 -11 11 73 86 130 114
26 13 86 37 133 52 47 15 86 29 88 30 6 5 54 361 131 970 86 677 95 733 114
752 6 6 188 45 402 86 l390 73 5 -79 c5 -73 15 -96 42 -97 21 0 40 60 57 178
11 71 27 146 36 166 20 42 72 84 129 102 52 18 203 11 244 -10z m52 -1443 c0
-100 -20 -544 -26 -570 -4 -19 -11 -23 -45 -23 l-40 0 6 133 c18 381 26 490
35 507 7 13 21 20 40 20 l30 0 0 -67z m-184 -175 c-7 -223 -21 -426 -29 -434
-3 -3 -30 -8 -61 -11 l-56 -6 0 132 c0 134 16 458 25 498 6 24 21 30 84 32
l44 1 -7 -212z m-1424 137 c-8 -152 -55 -522 -73 -566 -11 -29 -46 -49 -84
-49 -23 0 -25 4 -25 43 0 56 37 449 51 549 12 85 14 87 89 85 l45 -2 -3 -60z
m1196 -36 c5 -105 -17 -515 -28 -545 -7 -17 -21 -24 -62 -31 l-53 -8 -3 125
c-4 157 16 510 29 527 9 10 75 22 104 18 6 -1 12 -39 13 -86z m386 -625 c3 -9
6 -44 6 -80 0 -60 2 -64 29 -78 46 -24 118 -112 142 -174 31 -77 33 -240 5
-321 l-19 -55 -24 30 c-13 16 -47 67 -75 114 -63 104 -85 130 -114 130 -51 0
-38 -46 64 -222 74 -129 78 -140 53 -162 -30 -27 -114 -56 -133 -45 -9 5 -51
66 -94 136 -101 167 -121 193 -149 193 -51 0 -37 -52 57 -215 32 -55 58 -103
58 -107 0 -29 -113 26 -177 85 -55 51 -117 153 -150 249 -23 65 -26 93 -31
264 -4 176 -3 191 13 198 19 7 404 63 475 69 25 2 48 4 51 5 4 1 10 -5 13 -14z
m-1842 -312 c9 -4 31 -25 48 -47 40 -50 108 -98 181 -125 63 -24 63 -23 75
-145 6 -60 5 -65 -13 -65 -37 0 -171 39 -220 63 -97 50 -182 170 -198 280 l-6
47 58 -1 c32 0 66 -3 75 -7z m716 -8 c61 -3 112 -9 112 -14 0 -12 -149 -67
-217 -80 -38 -8 -110 -11 -185 -8 -143 6 -218 29 -277 85 l-36 34 245 -6 c135
-3 296 -8 358 -11z m382 -4 l98 0 12 -82 c6 -46 25 -125 42 -177 21 -65 26
-97 19 -104 -6 -6 -100 -12 -239 -15 l-228 -5 -33 44 c-17 24 -43 68 -58 97
-30 62 -25 73 44 96 67 23 122 58 173 110 25 26 50 44 58 41 8 -3 58 -5 112
-5z m-472 -273 c23 -46 42 -87 42 -90 0 -8 -206 -9 -236 -1 -16 4 -26 20 -38
63 -9 32 -16 67 -16 79 0 24 18 28 135 30 l70 2 43 -83z m-323 -191 c11 -8 16
-19 12 -30 -8 -20 -27 -16 -97 20 l-45 23 56 1 c31 0 63 -6 74 -14z m1072 -22
c18 -20 40 -48 47 -63 8 -15 21 -107 30 -216 9 -105 25 -282 35 -395 10 -113
17 -206 16 -208 -3 -4 -275 -30 -396 -37 l-106 -7 -6 73 c-13 144 -38 725 -35
794 l3 70 125 11 c69 6 154 12 189 13 61 1 65 -1 98 -35z m-522 6 c3 -5 14
-168 25 -362 11 -194 22 -404 26 -466 l6 -113 -223 7 c-145 4 -228 10 -235 18
-8 7 -15 138 -23 391 -6 209 -14 415 -18 458 l-6 77 221 0 c130 0 223 -4 227
-10z m658 -1022 c8 -29 32 -377 26 -382 -7 -6 -508 -50 -513 -45 -3 3 -6 96
-8 207 -3 231 -7 221 82 223 30 1 82 5 115 9 33 4 112 8 176 9 112 1 117 0
122 -21z m-613 -24 c11 -11 37 -390 27 -400 -8 -9 -451 27 -462 38 -6 5 -11
89 -14 194 l-3 185 220 -3 c138 -2 225 -7 232 -14z m903 -484 c124 -38 194
-117 204 -228 4 -38 1 -67 -7 -82 -12 -23 -13 -23 -24 -4 -38 68 -152 174
-186 174 -9 0 -24 -6 -34 -13 -26 -19 -14 -47 38 -86 53 -40 104 -108 112
-150 6 -28 4 -30 -32 -39 -105 -26 -101 -27 -133 36 -62 123 -159 217 -218
210 -51 -6 -41 -38 32 -109 70 -67 121 -141 110 -159 -9 -14 -86 -12 -245 5
-248 27 -293 47 -341 148 -29 63 -54 212 -42 255 7 28 8 28 213 46 96 9 191
18 210 20 80 10 279 -4 343 -24z m-960 -10 c42 -5 82 -12 87 -15 6 -4 10 -64
10 -142 0 -127 -2 -139 -25 -178 -39 -68 -68 -76 -289 -85 -209 -8 -256 -5
-256 17 0 18 80 103 130 138 45 31 54 49 40 76 -33 61 -184 -46 -247 -177 -18
-36 -32 -53 -41 -49 -8 3 -37 5 -65 5 -29 0 -58 4 -65 9 -23 14 23 88 99 162
69 66 69 67 51 88 -13 17 -24 21 -44 16 -37 -9 -145 -109 -169 -156 -11 -22
-22 -39 -25 -39 -4 0 -5 40 -2 89 3 76 8 95 31 130 30 45 118 109 169 122 41
10 504 2 611 -11z M3249 11720 c-99 -11 -185 -34 -284 -75 -170 -70 -267 -147
-281 -222 -21 -112 77 -227 180 -210 18 3 82 28 142 55 60 27 132 57 159 67
71 24 217 30 351 15 l114 -12 48 31 c63 40 77 68 77 152 0 78 -18 110 -81 146
-79 45 -275 69 -425 53z M5701 11503 c-67 -35 -91 -76 -91 -153 0 -123 48
-157 262 -189 168 -25 261 -55 398 -128 164 -88 176 -93 228 -93 62 0 107 29
139 89 26 50 30 109 9 149 -22 42 -114 124 -191 170 -169 100 -379 161 -605
177 -91 7 -97 6 -149 -22z M2838 11050 c-350 -56 -694 -419 -868 -915 -97
-276 -140 -532 -147 -872 -8 -348 22 -581 102 -813 69 -195 134 -300 266 -424
64 -61 103 -87 183 -126 55 -27 133 -57 171 -66 39 -9 71 -18 73 -20 2 -1 -17
-27 -42 -58 -53 -66 -69 -113 -54 -159 24 -70 88 -115 216 -148 96 -26 403
-36 567 -21 257 25 594 104 933 217 123 41 235 75 251 75 31 0 95 -40 233
-147 52 -40 104 -74 117 -75 36 -5 48 22 33 76 -20 76 -122 357 -157 433 -30
65 -37 73 -72 82 -104 28 -505 61 -739 61 -79 0 -144 2 -144 5 0 3 17 29 38
58 145 198 250 458 318 790 32 158 36 194 45 447 16 431 2 648 -56 851 -74
259 -204 451 -390 574 -124 82 -239 125 -415 156 -130 22 -376 33 -462 19z
m447 -106 c119 -19 170 -36 296 -101 251 -127 390 -332 465 -686 23 -109 26
-152 31 -402 8 -412 -15 -621 -101 -936 -60 -217 -152 -417 -256 -559 -66 -88
-104 -115 -175 -125 -187 -26 -457 -102 -660 -185 -127 -53 -183 -59 -299 -31
-94 23 -251 94 -301 137 -29 25 -29 26 -5 19 14 -3 72 -9 129 -12 171 -9 269
24 358 120 84 93 161 264 219 487 57 223 55 639 -5 866 -50 188 -104 288 -215
397 -122 120 -244 177 -380 177 -122 0 -213 -41 -328 -146 -33 -31 -62 -54
-64 -51 -5 5 50 169 95 280 150 374 408 660 676 747 90 30 348 32 520 4z m599
-2905 c55 -43 13 -101 -96 -134 -163 -48 -542 -35 -588 20 -19 23 3 42 79 65
119 37 327 66 497 69 69 1 85 -2 108 -20z m561 -10 c198 -16 175 -2 223 -137
54 -148 73 -212 64 -212 -4 0 -38 25 -76 55 -38 30 -84 65 -103 76 -41 25 -51
23 -263 -54 -278 -100 -621 -189 -852 -222 l-47 -6 15 38 c39 93 96 193 115
203 11 7 64 16 117 21 169 16 258 47 321 113 29 30 35 44 39 92 l5 56 166 -6
c91 -4 216 -11 276 -17z m-1244 -204 c34 -15 80 -29 103 -32 84 -9 89 -11 81
-40 -3 -15 -28 -73 -55 -129 l-48 -102 -47 -7 c-25 -4 -126 -5 -223 -2 -141 4
-192 9 -252 26 -189 55 -198 118 -30 224 72 45 232 125 295 147 l50 18 32 -37
c19 -22 57 -49 94 -66z M5570 10979 c-86 -13 -228 -57 -305 -95 -175 -85 -344
-287 -486 -579 -88 -183 -132 -303 -184 -510 -75 -295 -78 -320 -82 -715 -5
-384 -2 -422 48 -616 93 -359 228 -568 439 -678 84 -44 220 -89 340 -112 128
-24 407 -25 536 -1 320 59 574 215 734 451 317 469 421 1617 202 2231 -117
328 -356 525 -728 599 -167 33 -389 44 -514 25z m329 -90 c174 -14 301 -46
426 -108 122 -61 206 -128 274 -218 169 -224 234 -515 234 -1043 0 -293 -18
-487 -64 -715 -85 -415 -243 -714 -453 -857 -64 -44 -232 -127 -311 -153 -269
-90 -691 -64 -929 57 l-49 25 94 13 c288 39 450 185 554 503 49 152 58 234 59
562 0 262 -2 301 -22 404 -58 292 -134 436 -284 541 -135 95 -312 126 -460 80
-81 -25 -135 -62 -221 -153 -68 -71 -68 -72 -62 -37 17 88 112 349 169 467 81
166 160 285 259 390 133 140 238 198 420 232 121 23 189 25 366 10z M6666 194
c-10 -47 -15 -88 -12 -91 5 -6 9 7 30 110 7 37 10 67 6 67 -4 0 -15 -39 -24
-86z M6980 270 c0 -5 5 -10 10 -10 6 0 10 5 10 10 0 6 -4 10 -10 10 -5 0 -10
-4 -10 -10z M7526 194 c-10 -47 -15 -88 -12 -91 5 -6 9 7 30 110 7 37 10 67 6
67 -4 0 -15 -39 -24 -86z M7606 269 c-3 -8 -10 -41 -16 -74 -6 -33 -14 -68
-16 -77 -3 -10 -1 -18 3 -18 10 0 46 171 38 178 -2 3 -7 -1 -9 -9z M6369 241
c-38 -38 -41 -101 -7 -125 29 -20 79 -20 104 0 18 14 18 15 1 10 -53 -17 -69
-17 -92 -2 -69 45 21 166 94 126 12 -6 21 -7 21 -1 0 12 -25 21 -62 21 -19 0
-39 -10 -59 -29z M7370 189 c-28 -45 -49 -83 -47 -85 2 -3 12 7 21 21 14 21
24 25 66 25 43 0 50 -3 50 -19 0 -11 5 -23 10 -26 6 -3 10 -3 10 1 0 20 -44
164 -51 164 -4 0 -30 -37 -59 -81z m75 4 l7 -33 -42 0 c-42 0 -42 0 -28 23 8
12 21 32 29 44 15 25 22 18 34 -34z M6520 210 c-22 -22 -27 -79 -8 -98 19 -19
66 -14 88 8 22 22 27 79 8 98 -19 19 -66 14 -88 -8z m71 0 c25 -14 25 -54 -1
-80 -23 -23 -33 -24 -61 -10 -25 14 -25 54 1 80 23 23 33 24 61 10z M6730 210
c-22 -22 -27 -79 -8 -98 19 -19 66 -14 88 8 22 22 27 79 8 98 -19 19 -66 14
-88 -8z m71 0 c25 -14 25 -54 -1 -80 -23 -23 -33 -24 -61 -10 -25 14 -25 54 1
80 23 23 33 24 61 10z M6876 204 c-3 -16 -8 -47 -11 -69 -8 -51 10 -26 19 27
5 27 15 42 34 53 18 10 22 14 10 15 -9 0 -20 -5 -24 -11 -5 -8 -9 -8 -14 1 -5
8 -10 3 -14 -16z M6977 223 c-2 -4 -7 -26 -11 -48 -4 -22 -9 -48 -12 -57 -3
-10 -1 -18 4 -18 4 0 14 28 20 62 11 58 10 81 -1 61z M7035 220 c-1 -3 -5 -23
-9 -45 -4 -22 -9 -48 -12 -57 -3 -10 -1 -18 4 -18 5 0 13 20 17 45 7 53 44 87
74 68 17 -11 19 -28 8 -80 -4 -18 -3 -33 2 -33 16 0 24 99 11 115 -12 14 -87
18 -95 5z M7200 210 c-22 -22 -27 -79 -8 -98 7 -7 24 -12 38 -12 14 0 31 5 38
12 9 9 12 8 12 -5 0 -9 -12 -24 -26 -34 -21 -13 -32 -15 -55 -6 -16 6 -29 8
-29 3 0 -24 81 -27 102 -2 18 19 50 162 37 162 -5 0 -9 -5 -9 -10 0 -7 -6 -7
-19 0 -30 16 -59 12 -81 -10z m71 0 c29 -16 25 -65 -6 -86 -56 -37 -103 28
-55 76 23 23 33 24 61 10z M7701 211 c-23 -23 -28 -80 -9 -99 19 -19 88 -13
88 9 0 5 -11 4 -24 -2 -54 -25 -89 38 -46 81 23 23 33 24 62 9 16 -9 19 -8 16
3 -8 22 -64 22 -87 -1z M7830 210 c-22 -22 -27 -79 -8 -98 19 -19 66 -14 88 8
22 22 27 79 8 98 -19 19 -66 14 -88 -8z m71 0 c25 -14 25 -54 -1 -80 -23 -23
-33 -24 -61 -10 -25 14 -25 54 1 80 23 23 33 24 61 10z M7976 201 c-3 -14 -8
-44 -11 -66 -8 -51 10 -26 19 27 8 41 35 63 66 53 22 -7 24 -21 11 -77 -5 -22
-5 -38 0 -38 5 0 9 6 9 13 0 68 51 125 85 97 15 -13 15 -35 -1 -92 -3 -10 -1
-18 4 -18 6 0 13 23 17 50 9 63 -5 84 -49 76 -17 -4 -35 -6 -41 -6 -101 8
-104 7 -109 -19z M7620 110 c0 -5 5 -10 10 -10 6 0 10 5 10 10 0 6 -4 10 -10
10 -5 0 -10 -4 -10 -10z"/>
</g>
</svg>
